<?xml version="1.0" encoding="UTF-8"?>
<svg id="Layer_1" data-name="Layer 1" xmlns="http://www.w3.org/2000/svg" viewBox="0 0 301 301">
  <defs>
    <style>
      .cls-1 {
        fill: #c28c4a;
      }

      .cls-2 {
        fill: #231f20;
        opacity: .3;
      }

      .cls-3 {
        stroke: #653614;
        stroke-miterlimit: 10;
      }

      .cls-3, .cls-4 {
        fill: #663200;
      }

      .cls-5 {
        fill: #894c0e;
      }

      .cls-6 {
        fill: #ad661e;
      }
    </style>
  </defs>
  <path class="cls-3" d="M23.56,.5h254.41c12.43,0,22.53,10.1,22.53,22.53v254.94c0,12.43-10.1,22.53-22.53,22.53H23.03c-12.43,0-22.53-10.1-22.53-22.53V23.56C.5,10.83,10.83,.5,23.56,.5Z"/>
  <g>
    <path class="cls-6" d="M25.34,6.15h251.12c11.12,0,20.16,9.03,20.16,20.16v7.36c0,2.93-2.38,5.3-5.3,5.3H10.55c-2.93,0-5.3-2.38-5.3-5.3v-7.42C5.25,15.15,14.25,6.15,25.34,6.15Z"/>
    <rect class="cls-1" x="15.36" y="11.21" width="269.33" height="8.76"/>
    <circle class="cls-4" cx="278.03" cy="20.56" r="7.68"/>
    <circle class="cls-4" cx="21.66" cy="20.56" r="7.68"/>
  </g>
  <g>
    <path class="cls-6" d="M9.22,262.03H289.98c2.93,0,5.3,2.37,5.3,5.3v7.42c0,3.38-.84,6.57-2.31,9.36-1.38,2.62-3.06,4.38-4.04,5.3-1.39,1.3-3.97,3.35-7.77,4.53-2.41,.75-4.53,.9-5.98,.9H24.07c-6.01,0-11.4-2.63-15.1-6.8-3.15-3.56-5.06-8.23-5.06-13.36v-7.36c0-2.93,2.37-5.3,5.3-5.3Z"/>
    <rect class="cls-1" x="32.89" y="267.09" width="223.76" height="8.76"/>
    <circle class="cls-4" cx="277.6" cy="275.85" r="7.68"/>
    <circle class="cls-4" cx="21.23" cy="276.44" r="7.68"/>
    <path class="cls-5" d="M16.4,285.85H281.94c2.77,0,5.02,.65,5.02,1.45v2.03c0,.93-.79,1.8-2.19,2.57-1.31,.72-2.89,1.2-3.82,1.45-1.31,.36-3.76,.92-7.35,1.24-2.28,.21-4.28,.25-5.65,.25H30.44c-5.68,0-10.79-.72-14.28-1.86-2.98-.98-4.79-2.26-4.79-3.66v-2.02c0-.8,2.25-1.45,5.02-1.45Z"/>
  </g>
  <g>
    <rect class="cls-6" x="-85.25" y="134.09" width="213.82" height="32.82" rx="7.36" ry="7.36" transform="translate(-128.84 172.16) rotate(-90)"/>
    <rect class="cls-1" x="9.26" y="49.18" width="6.1" height="194.97"/>
    <circle class="cls-4" cx="21.66" cy="56.85" r="7.68"/>
    <circle class="cls-4" cx="21.66" cy="244.15" r="7.68"/>
  </g>
  <g>
    <rect class="cls-6" x="173.29" y="134.09" width="213.82" height="32.82" rx="7.36" ry="7.36" transform="translate(129.71 430.71) rotate(-90)"/>
    <rect class="cls-1" x="285.83" y="49.18" width="6.1" height="194.97"/>
    <circle class="cls-4" cx="280.21" cy="56.85" r="7.68"/>
    <circle class="cls-4" cx="280.21" cy="244.15" r="7.68"/>
  </g>
  <rect class="cls-6" x="43.93" y="49.11" width="213.18" height="33.67"/>
  <rect class="cls-6" x="43.93" y="91.26" width="213.18" height="33.68"/>
  <rect class="cls-6" x="44.36" y="133.66" width="213.18" height="33.68"/>
  <rect class="cls-6" x="44.36" y="176.06" width="213.18" height="33.68"/>
  <rect class="cls-6" x="44.37" y="218.46" width="213.18" height="33.68"/>
  <polygon class="cls-6" points="44.37 218.46 44.37 252.13 257.11 82.78 257.11 49.11 44.37 218.46"/>
  <polygon class="cls-4" points="44.37 252.13 43.93 262.03 257.11 91.26 257.11 82.78 44.37 252.13"/>
  <polygon class="cls-4" points="44.37 218.46 44.37 209.74 257.11 38.97 257.11 49.11 44.37 218.46"/>
  <polygon class="cls-2" points="49.37 248.14 49.37 262.03 257.54 96.26 257.11 82.78 49.37 248.14"/>
  <polygon class="cls-6" points="43.93 82.78 257.54 252.13 257.54 218.46 43.93 49.11 43.93 82.78"/>
  <polygon class="cls-4" points="43.93 49.11 43.93 38.97 257.54 209.74 257.54 218.46 43.93 49.11"/>
  <polygon class="cls-4" points="43.93 82.78 43.93 91.26 257.54 262.03 257.54 252.13 43.93 82.78"/>
  <path class="cls-2" d="M6.68,38.97c.42,.46,.76,1.01,.96,1.66,.33,.38,.64,.78,.94,1.23,.51,.76,.87,1.6,1.23,2.44,.35,.32,.7,.64,1.05,.96,.57,.52,.95,1.15,1.18,1.83H299.25v-8.12H6.68Z"/>
  <rect class="cls-2" x="38.48" y="47.09" width="224.51" height="13.65"/>
  <rect class="cls-2" x="38.49" y="60.74" width="10.89" height="201.29"/>
  <polyline class="cls-2" points="49.37 87.09 49.37 101.21 247.5 262.03 257.54 262.03 257.54 252.13"/>
</svg>